<svg width="27" height="30" viewBox="0 0 27 30" fill="none" xmlns="http://www.w3.org/2000/svg">
<path d="M14.664 29.288C14.28 29.288 13.928 29.128 13.608 28.808C13.288 28.424 13.096 28.008 13.032 27.56L11.784 18.728C10.056 19.944 7.528 21.544 4.2 23.528C3.944 23.784 3.592 23.912 3.144 23.912C2.696 23.912 2.28 23.816 1.896 23.624C1.576 23.368 1.416 23.016 1.416 22.568C1.416 22.056 1.704 21.512 2.28 20.936L9.288 15.368C6.28 13.96 3.656 12.616 1.416 11.336C1.096 11.208 0.808 10.984 0.552 10.664C0.36 10.28 0.264 9.928 0.264 9.608C0.264 9.032 0.552 8.648 1.128 8.456C1.704 8.2 2.216 8.168 2.664 8.36C4.52 9.192 6.184 9.864 7.656 10.376C8.168 10.568 8.68 10.792 9.192 11.048C9.768 11.24 10.376 11.464 11.016 11.72C10.696 8.968 10.504 5.992 10.44 2.792C10.44 2.216 10.568 1.736 10.824 1.352C11.144 0.903997 11.56 0.679998 12.072 0.679998C12.52 0.679998 12.872 0.871998 13.128 1.256C13.448 1.576 13.64 1.96 13.704 2.408L14.952 11.24C16.68 10.024 19.208 8.424 22.536 6.44C22.792 6.184 23.144 6.056 23.592 6.056C24.04 6.056 24.424 6.184 24.744 6.44C25.128 6.632 25.32 6.952 25.32 7.4C25.32 7.912 25.032 8.456 24.456 9.032L17.448 14.6C20.456 16.008 23.08 17.352 25.32 18.632C25.64 18.76 25.896 19.016 26.088 19.4C26.344 19.72 26.472 20.04 26.472 20.36C26.472 20.936 26.184 21.352 25.608 21.608C25.032 21.8 24.52 21.8 24.072 21.608C22.216 20.776 20.552 20.104 19.08 19.592C18.568 19.4 18.024 19.208 17.448 19.016C16.936 18.76 16.36 18.504 15.72 18.248C16.04 21 16.232 23.976 16.296 27.176C16.296 27.752 16.136 28.264 15.816 28.712C15.56 29.096 15.176 29.288 14.664 29.288Z" fill="currentColor"/>
</svg>
